<svg width="175" height="172" viewBox="0 0 175 172" fill="none" xmlns="http://www.w3.org/2000/svg">
<path d="M179.852 41.9781C179.852 46.8195 175.927 50.7441 171.086 50.7441H151.362C146.52 50.7441 142.596 54.6688 142.596 59.5101V79.234C142.596 84.0753 138.671 88 133.83 88H98.766C93.9247 88 90 84.0753 90 79.234V44.1703C90 39.329 93.9247 35.4043 98.766 35.4043H118.49C123.331 35.4043 127.256 31.4796 127.256 26.6383V6.91444C127.256 2.07311 131.181 -1.85156 136.022 -1.85156H171.086C175.927 -1.85156 179.852 2.07311 179.852 6.91444V41.9781Z" fill="white"/>
<path opacity="0.4" d="M82 130C82 134.418 78.4183 138 74 138H56C51.5817 138 48 141.582 48 146V164C48 168.418 44.4183 172 40 172H8C3.58172 172 0 168.418 0 164V132C0 127.582 3.58172 124 8 124H26C30.4183 124 34 120.418 34 116V98C34 93.5817 37.5817 90 42 90H74C78.4183 90 82 93.5817 82 98V130Z" fill="url(#paint0_linear_855_2907)"/>
<path opacity="0.4" d="M91 28C91 32.4183 87.4183 36 83 36H65C60.5817 36 57 39.5817 57 44V62C57 66.4183 53.4183 70 49 70H17C12.5817 70 9 66.4183 9 62V30C9 25.5817 12.5817 22 17 22H35C39.4183 22 43 18.4183 43 14V-4C43 -8.41828 46.5817 -12 51 -12H83C87.4183 -12 91 -8.41828 91 -4V28Z" fill="url(#paint1_linear_855_2907)"/>
<path opacity="0.4" d="M193 122C193 126.418 189.418 130 185 130H167C162.582 130 159 133.582 159 138V156C159 160.418 155.418 164 151 164H119C114.582 164 111 160.418 111 156V124C111 119.582 114.582 116 119 116H137C141.418 116 145 112.418 145 108V90C145 85.5817 148.582 82 153 82H185C189.418 82 193 85.5817 193 90V122Z" fill="url(#paint2_linear_855_2907)"/>
<defs>
<linearGradient id="paint0_linear_855_2907" x1="85" y1="90" x2="-4.88758e-06" y2="172" gradientUnits="userSpaceOnUse">
<stop stop-color="white"/>
<stop offset="1" stop-color="white" stop-opacity="0.1"/>
</linearGradient>
<linearGradient id="paint1_linear_855_2907" x1="94" y1="-12" x2="9" y2="70" gradientUnits="userSpaceOnUse">
<stop stop-color="white"/>
<stop offset="1" stop-color="white" stop-opacity="0.1"/>
</linearGradient>
<linearGradient id="paint2_linear_855_2907" x1="196" y1="82" x2="111" y2="164" gradientUnits="userSpaceOnUse">
<stop stop-color="white"/>
<stop offset="1" stop-color="white" stop-opacity="0.1"/>
</linearGradient>
</defs>
</svg>
